<?xml version="1.0" encoding="utf-8"?>
<!-- Generator: Adobe Illustrator 27.3.1, SVG Export Plug-In . SVG Version: 6.00 Build 0)  -->
<svg version="1.1" id="Layer_1" xmlns="http://www.w3.org/2000/svg" xmlns:xlink="http://www.w3.org/1999/xlink" x="0px" y="0px"
	 viewBox="0 0 530 530" style="enable-background:new 0 0 530 530;" xml:space="preserve">
<style type="text/css">
	.st0{fill:#33F3FB;}
	.st1{fill:url(#SVGID_1_);}
	.st2{fill:url(#SVGID_00000124129636993244811560000009994252952432511930_);}
</style>
<path class="st0" d="M83.5,438.9L83.5,438.9c4.1,1.6,8.3,3,12.6,4.2c46,12.4,92.4,24.2,138.7,35.9c7.1,1.8,14.9,2.9,22.4,2.9
	c19.6,0,36.3-9.7,36.9-23.7c1.3-27.6,0.4-55.2,0.4-83.6c-100.6,22.6-172.8,41.6-186,46.5C90.1,428.1,83.5,438.9,83.5,438.9z"/>
<linearGradient id="SVGID_1_" gradientUnits="userSpaceOnUse" x1="180.7576" y1="116.0565" x2="214.2195" y2="434.7413" gradientTransform="matrix(1 0 0 -1 0 532.3937)">
	<stop  offset="0" style="stop-color:#8C0FD3"/>
	<stop  offset="1" style="stop-color:#F2FEFF"/>
</linearGradient>
<path class="st1" d="M289.1,244.2c-8.1-14.8-24.4-21.7-42.9-26.8c-43.9-12.1-87.7-24.3-131.1-37.3c-10.6-3.2-20.4-8.9-28.8-15
	c-12.5-8.9-11.6-20.6,1.9-28.6c7-4.2,15.7-7.4,24.2-9.4c80-18.9,159.9-38.1,240.4-55.8c4.9-1.1,9.8-2,14.8-2.8c4.6-4,8.2-9.4,11-15
	c-3.6,0.7-7.2,1.6-10.8,2.4c-85.9,19.6-171.5,39.7-257.1,59.9c-10.8,2.5-21.7,5.4-31.4,9.7c-16.4,7.4-31,17-31.1,33.7
	c-0.2,80.7-0.2,161.5-0.1,242.3c0,11.4,4.8,21.8,16.7,28.5c7.9,4.4,16.1,8.9,16.9,8.2c0.6-0.6-4.8-2.8-6.2-7.5
	c-2.4-7.9,8.4-16.2,10.7-17.9c2.7-2,5.1-3.2,6.5-3.8c15.4-7.5,30.2-10.2,30.2-10.2c47.7-8.6,107.1-26.4,164.3-40.7
	c2.9-0.7,6.5-4.4,6.6-6.7c0.4-30.5,0.5-61.1,0.1-91.6C293.6,254.6,291.7,249.1,289.1,244.2z"/>
<linearGradient id="SVGID_00000159456855133339304270000011862452487005762449_" gradientUnits="userSpaceOnUse" x1="313.8415" y1="128.3176" x2="291.5336" y2="458.1563" gradientTransform="matrix(1 0 0 -1 0 532.3937)">
	<stop  offset="0" style="stop-color:#9728D9"/>
	<stop  offset="0.7875" style="stop-color:#EC9AF6"/>
	<stop  offset="1" style="stop-color:#FDEFFF"/>
</linearGradient>
<path style="fill:url(#SVGID_00000159456855133339304270000011862452487005762449_);" d="M482,82.6c0.3-21.1-12.9-29.5-35.9-33.1
	c-19.7-3-39-1.3-57.9,2.1c-2,5.2-4.7,10.5-8.2,15.1c16.5-2,33.4-3.2,50-4.7c6.8-0.7,14,2.2,21,3.4c0.2,1.1,0.4,2.4,0.7,3.5
	c-7.4,3.9-14.2,8.6-22.1,11.5c-16.8,6.1-33.6,12.6-51.3,16.9c-80.9,19.4-162.1,38.1-243.3,57c-8.2,1.9-16.5,3.4-27.8,5.7
	c10.4,3.2,17.7,5.7,25.1,7.7c43.2,12,86.6,23.5,129.6,35.7c29.3,8.4,56.2,28.9,55.3,60.3c-0.3,11.4,0.1,22.8,0.1,34.2
	c0,17.6,0,35.3,0,52.7c1.6,0.2,2.4,0.6,2.9,0.5c40.9-10,82.2-19.3,122.7-30.5c29.2-8,38.6-20.6,38.6-44.8
	C481.6,211.6,481,147.2,482,82.6z"/>
</svg>
