<?xml version="1.0" encoding="utf-8"?>
<!-- Generator: Adobe Illustrator 27.3.1, SVG Export Plug-In . SVG Version: 6.00 Build 0)  -->
<svg version="1.1" id="Layer_1" xmlns="http://www.w3.org/2000/svg" xmlns:xlink="http://www.w3.org/1999/xlink" x="0px" y="0px"
	 viewBox="0 0 530 530" style="enable-background:new 0 0 530 530;" xml:space="preserve">
<style type="text/css">
	.st0{fill:url(#SVGID_1_);}
	.st1{fill:url(#SVGID_00000168100380243712483030000001675255496764724628_);}
</style>
<g>
	<linearGradient id="SVGID_1_" gradientUnits="userSpaceOnUse" x1="12.879" y1="265" x2="298.3624" y2="265">
		<stop  offset="0" style="stop-color:#3F28B8"/>
		<stop  offset="1" style="stop-color:#1B0045"/>
	</linearGradient>
	<path class="st0" d="M91.9,396.4L93,301l0,0v0l0-0.3l0,0v-17.9c0-0.1,0-0.1,0-0.2c0-64.9-0.1-129.9,0.3-194.8
		c0.1-19.4,10-54.2,40.5-57.7H12.9c2,16.4,4.7,31.8,5.5,47.2c2.1,37.1,3.6,97.7,4.7,150.9v271.5c0,0,262.3-205.4,275.2-223.3
		C297,274.1,91.9,396.4,91.9,396.4z"/>
	
		<linearGradient id="SVGID_00000158021444077707506610000012735420979455497403_" gradientUnits="userSpaceOnUse" x1="231.6376" y1="265" x2="517.121" y2="265">
		<stop  offset="0" style="stop-color:#3F28B8"/>
		<stop  offset="1" style="stop-color:#1B0045"/>
	</linearGradient>
	<path style="fill:url(#SVGID_00000158021444077707506610000012735420979455497403_);" d="M310.6,396.4l1.2-95.4l0,0v0l0-0.3l0,0
		v-17.9c0-0.1,0-0.1,0-0.2c0-64.9-0.1-129.9,0.3-194.8c0.1-19.4,10-54.2,40.5-57.7H231.6c2,16.4,4.7,31.8,5.5,47.2
		c2.1,37.1,3.6,97.7,4.7,150.9v271.5c0,0,262.3-205.4,275.2-223.3C515.7,274.1,310.6,396.4,310.6,396.4z"/>
</g>
</svg>
