<svg id="Layer_1" data-name="Layer 1" xmlns="http://www.w3.org/2000/svg" viewBox="0 0 525.66 379.23"><defs><style>.cls-1{fill:#ec4899;}.cls-2{fill:#fff;}.cls-3{fill:none;}</style></defs><circle class="cls-1" cx="86.84" cy="86.84" r="86.84"/><path class="cls-2" d="M187,160.39c-3.52,9.07-11.63,15.26-20.21,19A67.7,67.7,0,0,1,138,184.76c-2.58-.14-8.16-.24-8.38-3.93a4.8,4.8,0,0,1,2.41-4.08c1.44-.81,3.2-.82,4.79-1a74.51,74.51,0,0,1,8.32-.22,38,38,0,0,0,15.22-3.61c.92-.42,1.83-.86,2.71-1.34a42.68,42.68,0,0,0,6.16-4.08c5.37-4.28,9.63-10.24,9.09-17.5a24.2,24.2,0,0,0-2.54-9.85,23,23,0,0,0-6.36-7.37,30.18,30.18,0,0,0-3.05-1.91,35,35,0,0,0-3.45-1.62,19.16,19.16,0,0,0-3.94-1c-2-.3-4-.53-6.05-.71-1.87-.18-3.75-.33-5.61-.5-.92-.08-1.84-.18-2.76-.24l-1.06-.09c-.89-.08-1.8-.14-2.71-.21l-14.28-1-1.33,6.34-7.14,35.27-1.51,7.21-.05.26-1.86,8.83-.06.33-4,18.85c-.6,2.85-3.71,5-6.95,4.73s-5.35-2.73-4.75-5.56l4-18.88.06-.24A49.13,49.13,0,0,1,78.6,170.46a38.8,38.8,0,0,1-12.76-38.14A46.48,46.48,0,0,1,72.19,117a55.26,55.26,0,0,1,8.15-9.87A61.85,61.85,0,0,1,96.05,96.32a64.35,64.35,0,0,1,10-3.81c9.41-2.76,19.06-2.82,28.74-2.09,3.8.28,7.59.65,11.39.91,1.42.1,2.83.19,4.25.26l.56,0,2.86.23a4.37,4.37,0,0,1,2.75,7.6c-1.54,1.44-4.28,1.21-6.2,1.07-3-.24-6.06-.55-9.08-.78-3.39-.26-6.79-.36-10.18-.53-4.3-.18-8.61-.43-12.92-.24a40.74,40.74,0,0,0-12.38,2.52l-.8.29a49.4,49.4,0,0,0-6.44,3,48.2,48.2,0,0,0-5.35,3.37,46.3,46.3,0,0,0-10,9.73,38.28,38.28,0,0,0-6.91,14.92c-4,18.81,8.47,35.56,28.51,39.62l3-14.41,2.55-12.16s2.41-11.51,2.43-11.52l2-10.73L117,113.27,154.12,116c11.66,1.27,22.88,6.4,29.15,14.68A30.63,30.63,0,0,1,187,160.39Z" transform="translate(-40.24 -62.24)"/><path class="cls-2" d="M283.45,172.08a29.26,29.26,0,0,1-11.34-2.17,26.85,26.85,0,0,1-9-6.1,28.19,28.19,0,0,1-5.94-9.33A31.78,31.78,0,0,1,255,142.71a31.46,31.46,0,0,1,2.09-11.66,27.3,27.3,0,0,1,5.91-9.17,26.15,26.15,0,0,1,9-6,30.41,30.41,0,0,1,11.42-2.08,28.76,28.76,0,0,1,12.64,2.71,23.8,23.8,0,0,1,13.58,19.18H297.86q-1-6.06-5-9.18a14.69,14.69,0,0,0-9.37-3.11,15.62,15.62,0,0,0-8.47,2.29,15.28,15.28,0,0,0-5.71,6.57,24,24,0,0,0-2,10.36,24.79,24.79,0,0,0,2.08,10.59,16.06,16.06,0,0,0,5.79,6.85,15.29,15.29,0,0,0,8.51,2.4,14.28,14.28,0,0,0,9.05-3.07q3.94-3.08,5.12-9.14h12a25.82,25.82,0,0,1-4.65,11.54,24.17,24.17,0,0,1-9.21,7.6A28.7,28.7,0,0,1,283.45,172.08Z" transform="translate(-40.24 -62.24)"/><path class="cls-2" d="M335.26,172.08a24.49,24.49,0,0,1-11.61-2.64,19.32,19.32,0,0,1-7.8-7.4,21.35,21.35,0,0,1-2.79-11,20.68,20.68,0,0,1,2.79-10.86,19.23,19.23,0,0,1,7.8-7.25,24.84,24.84,0,0,1,11.61-2.6,25.1,25.1,0,0,1,11.7,2.6,19,19,0,0,1,7.75,7.25,20.85,20.85,0,0,1,2.76,10.86,21.26,21.26,0,0,1-2.8,11,19.29,19.29,0,0,1-7.79,7.4A24.56,24.56,0,0,1,335.26,172.08Zm0-9.3a9.18,9.18,0,0,0,5-1.41,10.11,10.11,0,0,0,3.59-4.06,13.9,13.9,0,0,0,1.33-6.34c0-3.62-.95-6.41-2.87-8.38a9.83,9.83,0,0,0-14.1,0q-2.86,3-2.87,8.34a13.9,13.9,0,0,0,1.34,6.34,10.08,10.08,0,0,0,3.58,4.06A9.21,9.21,0,0,0,335.26,162.78Z" transform="translate(-40.24 -62.24)"/><path class="cls-2" d="M363.37,125.78V113H376v12.76Zm.4,45.51V131.13h11.81v40.16Z" transform="translate(-40.24 -62.24)"/><path class="cls-2" d="M385,171.29V131.13H396.6v9.45h.24v30.71Zm28,0V146.41a6.62,6.62,0,0,0-1.69-5,6.73,6.73,0,0,0-4.92-1.66,9.65,9.65,0,0,0-4.93,1.26,9,9,0,0,0-3.38,3.47,10.48,10.48,0,0,0-1.22,5.19l-1-9.68A16.64,16.64,0,0,1,401.6,133a16.15,16.15,0,0,1,9.41-2.64q6.69,0,10.24,3.74t3.54,10v27.17Z" transform="translate(-40.24 -62.24)"/><path class="cls-1" d="M433,171.29v-56.7h26.93a24.53,24.53,0,0,1,10.83,2.21,16.76,16.76,0,0,1,7,6.14,17,17,0,0,1,2.48,9.21,16.66,16.66,0,0,1-9.57,15.56A24,24,0,0,1,459.91,150H442.59v-9.29h16.69a8.79,8.79,0,0,0,6.5-2.33,8.26,8.26,0,0,0,2.32-6.1,8.14,8.14,0,0,0-2.32-6.06,8.89,8.89,0,0,0-6.5-2.28H445.11v47.4Z" transform="translate(-40.24 -62.24)"/><path class="cls-1" d="M495.74,172.08q-6,0-9.53-3a10.09,10.09,0,0,1-3.54-8.07,11,11,0,0,1,4.21-9q4.22-3.44,11.77-4.45l11.73-1.66v6.86l-9.76,1.49a9.53,9.53,0,0,0-4.65,1.73,4.32,4.32,0,0,0-1.49,3.47,3.44,3.44,0,0,0,1.42,3,6.31,6.31,0,0,0,3.77,1,10,10,0,0,0,6.3-2,5.82,5.82,0,0,0,2.6-4.69l1.1,6.3a13.54,13.54,0,0,1-5.27,6.77A15.68,15.68,0,0,1,495.74,172.08Zm14-.79a23.15,23.15,0,0,1-.67-3.7c-.13-1.31-.19-2.84-.19-4.57h-.32V144a4.75,4.75,0,0,0-1.61-3.81,7.18,7.18,0,0,0-4.77-1.38,9.53,9.53,0,0,0-4.76,1,4.81,4.81,0,0,0-2.32,3H483.85a13.21,13.21,0,0,1,5.59-9q4.8-3.55,13.15-3.55,8.66,0,13.23,3.86t4.56,11.1V163a29.93,29.93,0,0,0,.28,4,30.93,30.93,0,0,0,.91,4.29Z" transform="translate(-40.24 -62.24)"/><path class="cls-1" d="M538.26,170.5l-15.43-39.37h12.75L548.26,167Zm-8.5,16.93,11.1-24.57,2-3.38,10.39-28.35h12.6l-24.33,56.3Z" transform="translate(-40.24 -62.24)"/><line class="cls-3" x1="85.86" y1="379.23" x2="79.09" y2="378.47"/></svg>