<?xml version="1.0" encoding="utf-8"?>
<!-- Generator: Adobe Illustrator 27.3.1, SVG Export Plug-In . SVG Version: 6.00 Build 0)  -->
<svg version="1.1" id="Layer_1" xmlns="http://www.w3.org/2000/svg" xmlns:xlink="http://www.w3.org/1999/xlink" x="0px" y="0px"
	 viewBox="0 0 1700.8 597.8" style="enable-background:new 0 0 1700.8 597.8;" xml:space="preserve">
<style type="text/css">
	.st0{fill:url(#SVGID_1_);}
	.st1{fill:url(#SVGID_00000127736824295171317530000017690996716679176595_);}
	.st2{fill:url(#SVGID_00000114780233672621948140000009528003150947264443_);}
	.st3{fill:url(#SVGID_00000010305337295555398430000009051503161198131093_);}
	.st4{fill:url(#SVGID_00000004539115806762333050000009609532012461791923_);}
	.st5{fill:url(#SVGID_00000025404827325246700010000001436512788570445190_);}
	.st6{fill:url(#SVGID_00000153698043607994624320000000667919554802142863_);}
	.st7{fill:url(#SVGID_00000059292286569917397050000001655435077470015677_);}
	.st8{fill:#33F3FB;}
	.st9{fill:url(#SVGID_00000163034042868125490700000001313135635950921149_);}
	.st10{fill:url(#SVGID_00000110435911486700911710000009811178988882440875_);}
</style>
<path d="M191.7-106.6L191.7-106.6c-0.5-0.3-1-0.5-1.5-0.8C190.7-107.1,191.2-106.8,191.7-106.6z"/>
<g>
	
		<radialGradient id="SVGID_1_" cx="569.7479" cy="419.0893" r="560.1472" gradientTransform="matrix(1 0 0 -1 0 598)" gradientUnits="userSpaceOnUse">
		<stop  offset="0" style="stop-color:#FFFFFF"/>
		<stop  offset="0.5899" style="stop-color:#2FF7FA"/>
		<stop  offset="0.6097" style="stop-color:#3FF8FA"/>
		<stop  offset="0.6871" style="stop-color:#79FAFC"/>
		<stop  offset="0.762" style="stop-color:#A9FCFD"/>
		<stop  offset="0.8325" style="stop-color:#CEFDFE"/>
		<stop  offset="0.8977" style="stop-color:#E9FEFE"/>
		<stop  offset="0.9555" style="stop-color:#F9FFFF"/>
		<stop  offset="1" style="stop-color:#FFFFFF"/>
	</radialGradient>
	<path class="st0" d="M709.5,342.4c0-0.5-0.6-1-1.2-2c-4.6,1.5-9.3,3.2-14.1,4.7c-29.5,9.1-59.1,12.9-88.8,0.7
		c-38.8-15.9-52.6-69.9-26.1-102.7c19.9-24.5,47.4-29.6,76.5-26.9c17.8,1.6,35.2,7,53.5,10.9c0-6-0.4-13,0.1-20
		c0.5-6.6-2-9.3-8.3-11.1c-25.5-7.4-51.4-10.3-77.8-7c-26.3,3.3-50.2,12.4-69.4,31.5c-38.4,38.1-36.5,129.1,41.4,153.5
		c28.9,9.1,58.4,9.1,87.7,2.4C716.8,368.6,709,373.8,709.5,342.4z"/>
	
		<radialGradient id="SVGID_00000061467610780256187820000002106855047111388567_" cx="569.7479" cy="419.0893" r="560.1472" gradientTransform="matrix(1 0 0 -1 0 598)" gradientUnits="userSpaceOnUse">
		<stop  offset="0" style="stop-color:#FFFFFF"/>
		<stop  offset="0.5899" style="stop-color:#2FF7FA"/>
		<stop  offset="0.6097" style="stop-color:#3FF8FA"/>
		<stop  offset="0.6871" style="stop-color:#79FAFC"/>
		<stop  offset="0.762" style="stop-color:#A9FCFD"/>
		<stop  offset="0.8325" style="stop-color:#CEFDFE"/>
		<stop  offset="0.8977" style="stop-color:#E9FEFE"/>
		<stop  offset="0.9555" style="stop-color:#F9FFFF"/>
		<stop  offset="1" style="stop-color:#FFFFFF"/>
	</radialGradient>
	<path style="fill:url(#SVGID_00000061467610780256187820000002106855047111388567_);" d="M847,249.2c-24.8-9.4-50.1-9.4-75.2-2.3
		c-29.3,8.3-46.2,30.2-47.7,60.3c-0.9,17.8,4.4,34.2,14.9,46.6c9.1,10.8,19.5,15.5,27.4,19c39,17,76,1.6,81.5-0.8
		c7.2-3.2,15.1-6.7,23-14.6c11.9-11.9,18.4-28.5,18.2-46.4C888.7,282.5,873,259,847,249.2z M853.3,324.8
		c-5.3,19.8-23.4,31.3-48.6,30.7c-27.1-0.6-44.4-14.6-46.7-37.7c-3.5-35.6,20.5-55.9,58.6-49.7C845.9,272.9,860.9,296.1,853.3,324.8
		z"/>
	<g>
		
			<linearGradient id="SVGID_00000128466272978545605990000000928777032078289062_" gradientUnits="userSpaceOnUse" x1="1251.3671" y1="411.3566" x2="1251.3671" y2="182.4689" gradientTransform="matrix(1 0 0 -1 0 598)">
			<stop  offset="0" style="stop-color:#FF87FB"/>
			<stop  offset="1" style="stop-color:#A800FF"/>
		</linearGradient>
		<path style="fill:url(#SVGID_00000128466272978545605990000000928777032078289062_);" d="M1292.7,195.3
			c-27.1-3.8-54.8-3.6-82.3-4.7c-15.7-0.6-31.4-0.1-47.8-0.1c0,63.1,0,124.2,0,185.7c11.6,0,22.4,0,34.3,0c0-20.3,0-40,0-60.6
			c20.7,0,40.5,0.2,60.3,0c19-0.2,37.8-3,54.5-12.4c21.6-12.2,31.7-36.1,27.5-62.3C1335.7,218.3,1318.4,198.9,1292.7,195.3z
			 M1302.8,263.6c-5.4,17.1-20,21.2-35.3,23.7c-2.6,0.4-5.4,0.2-8,0.2c-20.4,0-40.9,0-62.5,0c0-23.5,0-45.4,0-68.1
			c2.8-0.3,5.4-0.8,7.9-0.8c21.8,0.1,43.7-0.9,65.3,0.8C1296.7,221.5,1310.1,240.6,1302.8,263.6z"/>
		
			<linearGradient id="SVGID_00000151509881327510915980000012060267397870856597_" gradientUnits="userSpaceOnUse" x1="1420.4214" y1="411.3566" x2="1420.4214" y2="182.4689" gradientTransform="matrix(1 0 0 -1 0 598)">
			<stop  offset="0" style="stop-color:#FF87FB"/>
			<stop  offset="1" style="stop-color:#A800FF"/>
		</linearGradient>
		<path style="fill:url(#SVGID_00000151509881327510915980000012060267397870856597_);" d="M1448.8,245.1
			c-22.4-4.3-44.8-3.6-66.9,2.2c-20.6,5.3-21.3,6.3-19.3,27.8c0,0.5,0.7,1,1.4,2.2c3.6-1.1,7.3-2.4,11.1-3.5
			c21.9-6.1,44-10,66.5-3.5c14.5,4.2,19.1,11.3,18.1,26.1c-8.8,0-16.8-0.1-24.8,0c-22.1,0.2-44.4-1.8-65.3,8.2
			c-14.4,6.9-22.4,17.8-21.9,34.1c0.4,16.2,8.8,27.2,22.9,33.9c15.3,7.2,31.9,9.9,48.2,6.3c14.7-3.2,28.6-9.4,43.2-14.4
			c0.4,2.6,1.2,7.1,1.9,11.4c9.9,0,19.1,0,29.2,0c0-26.6,0.2-52.4-0.1-78.2C1492.6,268.6,1477.5,250.6,1448.8,245.1z M1436.9,353.8
			c-12.7,3-26.5,2.7-39.6,1.6c-10.9-0.9-17.4-9.3-17.2-17.9c0.2-10.6,7.4-16.4,16.5-17.4c20.8-2.2,41.9-2.7,63.3-4
			C1462,341.1,1458,348.8,1436.9,353.8z"/>
		
			<linearGradient id="SVGID_00000020362465490529423250000000873748120232833434_" gradientUnits="userSpaceOnUse" x1="1585.7001" y1="411.3566" x2="1585.7001" y2="182.4689" gradientTransform="matrix(1 0 0 -1 0 598)">
			<stop  offset="0" style="stop-color:#FF87FB"/>
			<stop  offset="1" style="stop-color:#A800FF"/>
		</linearGradient>
		<path style="fill:url(#SVGID_00000020362465490529423250000000873748120232833434_);" d="M1643.1,245.7c-6.2-0.4-9.6,1.6-12.3,7.5
			c-10.1,22.3-20.7,44.4-31.2,66.6c-4.3,9.1-8.7,18.2-13.6,28.6c-15.8-32.5-30.7-63.3-45.8-94c-1.6-3.2-4.7-7.7-7.4-8
			c-9.5-1-19.2-0.4-30.1-0.4c1.9,4.6,3.1,8,4.7,11.2c19.6,38.3,39,76.6,59.1,114.6c2.9,5.4,2.2,9,0,13.7
			c-7.3,15.2-20.8,20-36.2,21.3c0,7.9,0,15.2,0,23c33.5,3.4,54.6-9.3,69.3-40.3c18.2-38.2,36.5-76.3,54.8-114.4
			c4.4-9.3,9-18.4,14.3-29.2C1658.9,245.8,1651,246.2,1643.1,245.7z"/>
	</g>
	
		<radialGradient id="SVGID_00000163062624089080574990000005455428799054822299_" cx="569.7479" cy="419.0893" r="560.1472" gradientTransform="matrix(1 0 0 -1 0 598)" gradientUnits="userSpaceOnUse">
		<stop  offset="0" style="stop-color:#FFFFFF"/>
		<stop  offset="0.5899" style="stop-color:#2FF7FA"/>
		<stop  offset="0.6097" style="stop-color:#3FF8FA"/>
		<stop  offset="0.6871" style="stop-color:#79FAFC"/>
		<stop  offset="0.762" style="stop-color:#A9FCFD"/>
		<stop  offset="0.8325" style="stop-color:#CEFDFE"/>
		<stop  offset="0.8977" style="stop-color:#E9FEFE"/>
		<stop  offset="0.9555" style="stop-color:#F9FFFF"/>
		<stop  offset="1" style="stop-color:#FFFFFF"/>
	</radialGradient>
	<path style="fill:url(#SVGID_00000163062624089080574990000005455428799054822299_);" d="M1105.5,251.3
		c-23.3-14-62.6-11.2-83.9,5.9c-2.5,2-5,4-7.9,6.2c-4.3-18.2-4.3-17.8-22.7-18c-8.1-0.1-10.2,2.7-10.1,10.4
		c0.4,37.6,0.2,75.3,0.3,112.9c0,2.5,0.6,5,0.9,7.2c11,0,21.2,0,32.1,0c0-26.1,0.5-51.3-0.3-76.4c-0.3-10.3,4.1-16.5,12-21.3
		c4-2.4,8.3-4.5,12.6-6.2c34.9-13.3,58.2,2.4,58.3,38.9c0,9.4,0,18.8,0,28.2c0,12.3,0,24.6,0,37.4c11.1,0,21.1,0,32.4,0
		c0-29.8,0.7-58.7-0.3-87.4C1128.4,272.9,1119.9,259.9,1105.5,251.3z"/>
	
		<radialGradient id="SVGID_00000059269359826187345120000004737621896965556634_" cx="569.7479" cy="419.0893" r="560.1472" gradientTransform="matrix(1 0 0 -1 0 598)" gradientUnits="userSpaceOnUse">
		<stop  offset="0" style="stop-color:#FFFFFF"/>
		<stop  offset="0.5899" style="stop-color:#2FF7FA"/>
		<stop  offset="0.6097" style="stop-color:#3FF8FA"/>
		<stop  offset="0.6871" style="stop-color:#79FAFC"/>
		<stop  offset="0.762" style="stop-color:#A9FCFD"/>
		<stop  offset="0.8325" style="stop-color:#CEFDFE"/>
		<stop  offset="0.8977" style="stop-color:#E9FEFE"/>
		<stop  offset="0.9555" style="stop-color:#F9FFFF"/>
		<stop  offset="1" style="stop-color:#FFFFFF"/>
	</radialGradient>
	<path style="fill:url(#SVGID_00000059269359826187345120000004737621896965556634_);" d="M914.4,376c10.8,0,21,0,31.3,0
		c0-43.7,0-86.5,0-129.9c-10.6,0-20.5,0-31.3,0C914.4,290,914.4,332.9,914.4,376z"/>
	
		<radialGradient id="SVGID_00000169550342119789641560000009123747610252642700_" cx="569.7479" cy="419.0893" r="560.1472" gradientTransform="matrix(1 0 0 -1 0 598)" gradientUnits="userSpaceOnUse">
		<stop  offset="0" style="stop-color:#FFFFFF"/>
		<stop  offset="0.5899" style="stop-color:#2FF7FA"/>
		<stop  offset="0.6097" style="stop-color:#3FF8FA"/>
		<stop  offset="0.6871" style="stop-color:#79FAFC"/>
		<stop  offset="0.762" style="stop-color:#A9FCFD"/>
		<stop  offset="0.8325" style="stop-color:#CEFDFE"/>
		<stop  offset="0.8977" style="stop-color:#E9FEFE"/>
		<stop  offset="0.9555" style="stop-color:#F9FFFF"/>
		<stop  offset="1" style="stop-color:#FFFFFF"/>
	</radialGradient>
	<path style="fill:url(#SVGID_00000169550342119789641560000009123747610252642700_);" d="M930.7,187c-10.6-0.2-20.2,8.2-20.4,18
		c-0.2,10.6,8.2,18.8,19.2,18.7c12-0.1,20.5-8,20.3-18.8C949.6,194.9,941.4,187.2,930.7,187z"/>
	<path d="M65.1,503.9L65.1,503.9c-0.6-0.3-1.2-0.6-1.8-0.9C63.9,503.3,64.5,503.6,65.1,503.9z"/>
</g>
<g>
	<path class="st8" d="M74.7,503.9C74.7,503.9,74.7,503.9,74.7,503.9c3.9,1.9,7.9,3.6,11.9,4.9c43.6,14.7,87.5,28.6,131.5,42.4
		c6.8,2.1,14.2,3.4,21.3,3.4c18.5,0,34.4-11.5,35-27.8c1.2-32.5,0.4-65,0.4-98.5c-95.3,26.6-163.8,49-176.3,54.8
		C80.9,491.1,74.7,503.9,74.7,503.9z"/>
	
		<linearGradient id="SVGID_00000097483551847460696370000006225130241886663078_" gradientUnits="userSpaceOnUse" x1="159.5924" y1="474.6182" x2="198.4415" y2="104.6266">
		<stop  offset="0" style="stop-color:#8C0FD3"/>
		<stop  offset="1" style="stop-color:#F2FEFF"/>
	</linearGradient>
	<path style="fill:url(#SVGID_00000097483551847460696370000006225130241886663078_);" d="M269.5,274.4
		c-7.7-17.5-23.2-25.6-40.7-31.6c-41.6-14.3-83.1-28.6-124.3-44c-10-3.7-19.3-10.5-27.3-17.6c-11.9-10.5-11-24.2,1.8-33.7
		c6.7-4.9,14.9-8.7,23-11.1c75.9-22.3,151.6-44.9,227.9-65.7c4.6-1.3,9.3-2.3,14-3.3c4.3-4.8,7.8-11.1,10.4-17.7
		c-3.4,0.9-6.9,1.8-10.3,2.8c-81.4,23-162.5,46.8-243.7,70.5c-10.2,3-20.6,6.4-29.7,11.5c-15.6,8.7-29.4,20-29.5,39.6
		c-0.3,95.1-0.2,190.3-0.1,285.4c0,13.4,4.6,25.7,15.8,33.6c7.4,5.2,15.3,10.5,16,9.6c0.5-0.7-4.5-3.3-5.9-8.7
		c-2.2-9.2,8-19.1,10.1-21.1c2.5-2.3,4.8-3.8,6.1-4.5c14.6-8.8,28.6-11.9,28.6-11.9c45.3-10.1,101.5-31,155.7-48
		c2.7-0.9,6.1-5.2,6.2-7.9c0.4-36,0.5-71.9,0.1-107.9C273.8,286.7,272,280.1,269.5,274.4z"/>
	
		<linearGradient id="SVGID_00000033340158629400604360000000461548697664091811_" gradientUnits="userSpaceOnUse" x1="297.4766" y1="462.644" x2="271.0806" y2="72.3599">
		<stop  offset="0" style="stop-color:#9728D9"/>
		<stop  offset="0.7875" style="stop-color:#EC9AF6"/>
		<stop  offset="1" style="stop-color:#FDEFFF"/>
	</linearGradient>
	<path style="fill:url(#SVGID_00000033340158629400604360000000461548697664091811_);" d="M452.4,84.1c0.3-24.9-12.2-34.8-34-39
		c-18.7-3.6-37-1.5-54.9,2.5c-1.9,6.2-4.5,12.3-7.8,17.8c15.7-2.4,31.7-3.8,47.5-5.6c6.4-0.7,13.3,2.6,20,4c0.2,1.4,0.4,2.8,0.6,4.1
		c-7,4.6-13.5,10.1-21,13.6c-15.9,7.3-31.8,14.9-48.6,19.8c-76.7,22.9-153.7,44.9-230.6,67.1c-7.7,2.2-15.6,4-26.4,6.8
		c9.8,3.8,16.7,6.6,23.8,9c40.9,14,82,27.7,122.9,42.1c27.8,9.8,53.3,34,52.4,71.1c-0.3,13.4,0.1,26.9,0.1,40.3
		c0,20.8,0,41.5,0,62.1c1.5,0.3,2.3,0.7,2.8,0.5c38.8-11.8,77.9-22.8,116.3-35.8c27.7-9.4,36.6-24.2,36.6-52.8
		C452.1,236,451.5,160,452.4,84.1z"/>
</g>
</svg>
