<svg xmlns="http://www.w3.org/2000/svg" viewBox="0 0 525.66 173.68"><defs><style>.cls-1{fill:#ec4899;}.cls-2{fill:#fff;}</style></defs><g id="Layer_2" data-name="Layer 2"><g id="Layer_1-2" data-name="Layer 1"><circle class="cls-1" cx="86.84" cy="86.84" r="86.84"/><path class="cls-2" d="M146.8,98.14c-3.52,9.08-11.64,15.27-20.21,19a64.4,64.4,0,0,1-15,4.43,63.4,63.4,0,0,1-13.77.93c-2.58-.14-8.16-.24-8.38-3.93a4.79,4.79,0,0,1,2.41-4.08c1.44-.81,3.2-.82,4.79-1a79.63,79.63,0,0,1,8.32-.22,37.68,37.68,0,0,0,15.22-3.61c.92-.41,1.82-.86,2.71-1.34a41.87,41.87,0,0,0,6.16-4.08c5.37-4.28,9.63-10.24,9.09-17.5a24.12,24.12,0,0,0-2.54-9.84,22.93,22.93,0,0,0-6.36-7.37,27,27,0,0,0-3-1.91A32.87,32.87,0,0,0,122.69,66a19.09,19.09,0,0,0-4-1q-3-.45-6-.72c-1.87-.17-3.75-.32-5.61-.5l-2.76-.24-1.06-.08c-.89-.08-1.8-.15-2.71-.21L86.28,62.19,85,68.54,77.81,103.8,76.3,111l0,.26-1.86,8.82-.06.34-4,18.85c-.6,2.85-3.71,5-7,4.72s-5.35-2.72-4.75-5.55l4-18.88.06-.25a49,49,0,0,1-24.32-11.11A38.8,38.8,0,0,1,25.6,70.08,46.39,46.39,0,0,1,32,54.8a54.91,54.91,0,0,1,8.15-9.87A62,62,0,0,1,55.8,34.08a65.94,65.94,0,0,1,10-3.82c9.41-2.76,19.06-2.82,28.74-2.09,3.8.29,7.59.65,11.39.92l4.25.26.56,0,2.86.23a4.47,4.47,0,0,1,4,3.07,4.42,4.42,0,0,1-1.23,4.53c-1.54,1.44-4.28,1.21-6.2,1.06-3-.23-6.06-.55-9.08-.78-3.39-.26-6.79-.36-10.18-.52-4.31-.19-8.62-.43-12.92-.24a40.43,40.43,0,0,0-12.38,2.51l-.8.3a51.48,51.48,0,0,0-6.45,2.95A50.59,50.59,0,0,0,53,45.88a46.34,46.34,0,0,0-10,9.74,38.17,38.17,0,0,0-6.91,14.91c-4,18.82,8.47,35.56,28.51,39.63l3-14.41,2.55-12.16s2.41-11.51,2.43-11.52l2-10.74L76.75,51l37.13,2.73C125.54,55,136.76,60.17,143,68.44A30.64,30.64,0,0,1,146.8,98.14Z"/><path class="cls-2" d="M243.21,109.83a29.22,29.22,0,0,1-11.34-2.16,26.88,26.88,0,0,1-9-6.11,28,28,0,0,1-5.94-9.33,33.55,33.55,0,0,1,0-23.42,27.24,27.24,0,0,1,5.91-9.18,26.12,26.12,0,0,1,9-6,30.42,30.42,0,0,1,11.42-2.09,28.76,28.76,0,0,1,12.64,2.72,23.81,23.81,0,0,1,13.58,19.17H257.62q-1-6.06-5-9.17a14.69,14.69,0,0,0-9.37-3.11,15.7,15.7,0,0,0-8.47,2.28A15.37,15.37,0,0,0,229.11,70a23.94,23.94,0,0,0-2,10.35A24.73,24.73,0,0,0,229.15,91a16,16,0,0,0,5.79,6.85,15.22,15.22,0,0,0,8.51,2.41,14.34,14.34,0,0,0,9.05-3.07q3.94-3.07,5.12-9.14h12a25.82,25.82,0,0,1-4.65,11.54,24.26,24.26,0,0,1-9.21,7.6A28.69,28.69,0,0,1,243.21,109.83Z"/><path class="cls-2" d="M295,109.83a24.49,24.49,0,0,1-11.61-2.64,19.19,19.19,0,0,1-7.8-7.4,21.29,21.29,0,0,1-2.79-11,20.71,20.71,0,0,1,2.79-10.87,19.28,19.28,0,0,1,7.8-7.24A24.84,24.84,0,0,1,295,68.1a25.1,25.1,0,0,1,11.7,2.6,19,19,0,0,1,7.75,7.24,20.89,20.89,0,0,1,2.76,10.87,21.3,21.3,0,0,1-2.8,11,19.16,19.16,0,0,1-7.79,7.4A24.56,24.56,0,0,1,295,109.83Zm0-9.29a9.11,9.11,0,0,0,5-1.42,10,10,0,0,0,3.59-4.05,13.9,13.9,0,0,0,1.33-6.34c0-3.62-.95-6.42-2.87-8.39a9.85,9.85,0,0,0-14.1,0q-2.87,3-2.87,8.35a13.9,13.9,0,0,0,1.34,6.34A10,10,0,0,0,290,99.12,9.13,9.13,0,0,0,295,100.54Z"/><path class="cls-2" d="M323.13,63.53V50.78h12.6V63.53Zm.4,45.52V68.89h11.81v40.16Z"/><path class="cls-2" d="M344.79,109.05V68.89h11.57v9.45h.24v30.71Zm27.95,0V84.16a6.68,6.68,0,0,0-1.69-5,6.78,6.78,0,0,0-4.93-1.65,9.63,9.63,0,0,0-4.92,1.26,8.92,8.92,0,0,0-3.38,3.46,10.52,10.52,0,0,0-1.22,5.2l-1-9.69a16.67,16.67,0,0,1,5.79-7,16.15,16.15,0,0,1,9.41-2.64q6.69,0,10.24,3.74t3.54,10v27.17Z"/><path class="cls-1" d="M392.74,109.05V52.35h26.93a24.53,24.53,0,0,1,10.83,2.21,16.6,16.6,0,0,1,7,6.14A16.84,16.84,0,0,1,440,69.91a16.66,16.66,0,0,1-9.57,15.55,23.91,23.91,0,0,1-10.75,2.25H402.35v-9.3H419a8.79,8.79,0,0,0,6.5-2.32,8.28,8.28,0,0,0,2.32-6.1,8.14,8.14,0,0,0-2.32-6.06,8.86,8.86,0,0,0-6.5-2.29H404.87v47.41Z"/><path class="cls-1" d="M455.5,109.83q-6,0-9.53-3a10.09,10.09,0,0,1-3.54-8.07,11.06,11.06,0,0,1,4.21-9q4.22-3.42,11.77-4.44l11.73-1.66v6.85L460.38,92a9.34,9.34,0,0,0-4.65,1.73,4.32,4.32,0,0,0-1.49,3.47,3.46,3.46,0,0,0,1.41,3,6.36,6.36,0,0,0,3.78,1,10,10,0,0,0,6.3-2,5.81,5.81,0,0,0,2.6-4.68l1.1,6.3a13.54,13.54,0,0,1-5.27,6.77A15.67,15.67,0,0,1,455.5,109.83Zm14-.78a23.07,23.07,0,0,1-.67-3.71c-.13-1.31-.19-2.83-.19-4.56h-.32v-19A4.77,4.77,0,0,0,466.72,78,7.18,7.18,0,0,0,462,76.6a9.52,9.52,0,0,0-4.76,1,4.81,4.81,0,0,0-2.32,3H443.61a13.19,13.19,0,0,1,5.59-9q4.8-3.54,13.15-3.54,8.65,0,13.23,3.86t4.56,11.1v17.72a29.67,29.67,0,0,0,.28,4,32.81,32.81,0,0,0,.9,4.3Z"/><path class="cls-1" d="M498,108.26,482.59,68.89h12.75L508,104.79Zm-8.5,16.93,11.1-24.57,2.05-3.39,10.39-28.34h12.6l-24.33,56.3Z"/></g></g></svg>