<svg xmlns="http://www.w3.org/2000/svg" viewBox="0 0 451.96 451.96"><defs><style>.cls-1{fill:#ec4899;}.cls-2{fill:#fff;}</style></defs><g id="Layer_2" data-name="Layer 2"><g id="Layer_1-2" data-name="Layer 1"><circle class="cls-1" cx="225.98" cy="225.98" r="225.98"/><path class="cls-2" d="M382,255.39c-9.17,23.62-30.29,39.72-52.6,49.5a167.63,167.63,0,0,1-39.17,11.51,164.43,164.43,0,0,1-35.83,2.42c-6.71-.36-21.24-.62-21.8-10.23-.24-4.19,2.75-8.62,6.27-10.61,3.74-2.12,8.31-2.14,12.46-2.59,7.21-.8,14.42-.57,21.65-.57,13.47,0,27.32-3.84,39.62-9.39,2.39-1.08,4.73-2.25,7-3.5a110.78,110.78,0,0,0,16-10.61c14-11.14,25.06-26.65,23.64-45.54-.68-9-2.35-17.75-6.6-25.62A59.53,59.53,0,0,0,336.17,181a71.52,71.52,0,0,0-7.92-5,87.62,87.62,0,0,0-9-4.21A49.88,49.88,0,0,0,309,169.14c-5.2-.78-10.45-1.39-15.73-1.86-4.86-.46-9.74-.84-14.6-1.3-2.39-.21-4.78-.45-7.18-.62l-2.76-.23c-2.32-.2-4.69-.38-7.05-.55l-37.15-2.74-3.47,16.51-18.58,91.78-3.94,18.76-.13.67-4.82,23-.18.88-10.32,49.05c-1.57,7.41-9.66,12.93-18.07,12.28s-13.94-7.08-12.37-14.45l10.29-49.12.17-.64c-25.08-4.18-46.68-14.49-63.29-28.94-27.89-24.29-41.53-60.37-33.19-99.23A120.22,120.22,0,0,1,83.15,142.6a141.85,141.85,0,0,1,21.2-25.68,160.5,160.5,0,0,1,40.87-28.24,170.94,170.94,0,0,1,25.94-9.93c24.48-7.18,49.59-7.34,74.79-5.44,9.88.74,19.74,1.69,29.63,2.38,3.68.25,7.36.49,11.05.69l1.46.13,7.45.58a11.4,11.4,0,0,1,7.16,19.79c-4,3.75-11.14,3.15-16.13,2.76-7.89-.6-15.78-1.42-23.64-2-8.82-.68-17.66-.94-26.5-1.36-11.19-.49-22.41-1.13-33.62-.64a106,106,0,0,0-32.22,6.55c-.69.25-1.39.51-2.08.78a130.89,130.89,0,0,0-16.76,7.68,125.87,125.87,0,0,0-13.91,8.77,120.75,120.75,0,0,0-25.95,25.33,99.33,99.33,0,0,0-18,38.82c-10.46,49,22,92.53,74.2,103.1l7.87-37.5,6.65-31.63s6.27-30,6.31-30l5.15-27.94,5.64-26.82,96.62,7.13c30.32,3.32,59.53,16.66,75.86,38.19S392.31,228.88,382,255.39Z"/></g></g></svg>