<svg id="Layer_1" data-name="Layer 1" xmlns="http://www.w3.org/2000/svg" viewBox="0 0 600 600"><defs><style>.cls-1{fill:#fff;}.cls-2{fill:#ec4899;}</style></defs><rect class="cls-1" width="600" height="600"/><circle class="cls-2" cx="300" cy="300" r="251.22"/><path class="cls-1" d="M473.47,332.7c-10.2,26.25-33.67,44.15-58.47,55a185.82,185.82,0,0,1-43.55,12.8,182.91,182.91,0,0,1-39.83,2.69c-7.46-.4-23.62-.69-24.24-11.38-.27-4.66,3.06-9.57,7-11.78,4.16-2.36,9.24-2.38,13.85-2.89,8-.89,16-.63,24.07-.63,15,0,30.37-4.27,44.05-10.44q4-1.8,7.82-3.89A121.78,121.78,0,0,0,422,350.4c15.53-12.38,27.86-29.62,26.29-50.62-.76-10-2.61-19.73-7.34-28.49A66.48,66.48,0,0,0,422.5,250a82.68,82.68,0,0,0-8.8-5.53,96.85,96.85,0,0,0-10-4.68,55.34,55.34,0,0,0-11.4-3q-8.69-1.29-17.5-2.07c-5.39-.5-10.83-.93-16.22-1.44-2.66-.23-5.32-.5-8-.69l-3.07-.25c-2.59-.23-5.21-.42-7.84-.62l-41.3-3-3.86,18.35-20.65,102-4.38,20.86-.14.75L264,396.23l-.19,1-11.48,54.53c-1.74,8.24-10.73,14.38-20.09,13.66s-15.49-7.87-13.75-16.07l11.45-54.61.18-.71c-27.88-4.64-51.89-16.11-70.36-32.16-31-27-46.17-67.11-36.9-110.32a133.56,133.56,0,0,1,18.37-44.21,158.28,158.28,0,0,1,23.56-28.55,178.55,178.55,0,0,1,45.44-31.39,188.62,188.62,0,0,1,28.83-11c27.23-8,55.14-8.16,83.15-6.05,11,.83,21.95,1.88,32.94,2.64q6.14.44,12.28.77l1.63.15,8.28.65a12.66,12.66,0,0,1,8,22c-4.47,4.17-12.39,3.5-17.93,3.08-8.77-.68-17.54-1.59-26.28-2.26-9.81-.75-19.64-1-29.46-1.51-12.45-.54-24.91-1.26-37.38-.71a118,118,0,0,0-35.81,7.28c-.77.29-1.55.57-2.32.87a145.24,145.24,0,0,0-18.63,8.54A140.35,140.35,0,0,0,202,181.52a133.72,133.72,0,0,0-28.85,28.16,110.41,110.41,0,0,0-20,43.15c-11.63,54.43,24.51,102.86,82.48,114.62l8.76-41.69,7.39-35.16s7-33.3,7-33.33l5.73-31.06,6.26-29.81,107.42,7.92c33.71,3.69,66.18,18.52,84.33,42.46S484.91,303.23,473.47,332.7Z"/></svg>